<svg width="40" height="40" viewBox="0 0 40 40" fill="none" xmlns="http://www.w3.org/2000/svg">
<g clip-path="url(#clip0_1062_47941)">
<rect width="40" height="40" rx="20" fill="#F2F2F2"/>
<path d="M0.681484 25.1764C-0.112511 22.2132 -0.214195 19.107 0.384293 16.0982C0.982784 13.0894 2.2654 10.2586 4.13293 7.82477C6.00046 5.39096 8.40284 3.41938 11.1542 2.06255C13.9056 0.705713 16.9322 -4.26696e-08 20 0C23.0678 4.26696e-08 26.0944 0.705713 28.8458 2.06255C31.5972 3.41938 33.9995 5.39096 35.8671 7.82477C37.7346 10.2586 39.0172 13.0894 39.6157 16.0982C40.2142 19.107 40.1125 22.2132 39.3185 25.1764L35.4548 24.1411C36.09 21.7705 36.1714 19.2856 35.6926 16.8786C35.2138 14.4715 34.1877 12.2069 32.6937 10.2598C31.1996 8.31277 29.2777 6.7355 27.0766 5.65004C24.8755 4.56457 22.4542 4 20 4C17.5458 4 15.1245 4.56457 12.9234 5.65004C10.7223 6.7355 8.80037 8.31277 7.30635 10.2598C5.81232 12.2069 4.78623 14.4715 4.30743 16.8786C3.82864 19.2856 3.90999 21.7705 4.54519 24.1411L0.681484 25.1764Z" fill="white"/>
<path d="M12.906 24.1465C10.8904 24.1465 9.49586 23.1445 9.49586 21.6914V21.6797C9.49586 20.584 10.3103 19.7754 11.447 19.5527V19.5176C10.4685 19.2773 9.80641 18.5684 9.80641 17.666V17.6543C9.80641 16.3477 11.0779 15.3984 12.906 15.3984C14.7283 15.3984 16.0056 16.3477 16.0056 17.6543V17.666C16.0056 18.5684 15.3377 19.2773 14.365 19.5176V19.5527C15.4959 19.7754 16.3103 20.584 16.3103 21.6797V21.6914C16.3103 23.1445 14.9216 24.1465 12.906 24.1465ZM12.906 18.9844C13.7029 18.9844 14.2537 18.5098 14.2537 17.8301V17.8184C14.2537 17.1445 13.697 16.6758 12.906 16.6758C12.115 16.6758 11.5525 17.1445 11.5525 17.8184V17.8301C11.5525 18.5098 12.1091 18.9844 12.906 18.9844ZM12.906 22.8574C13.8259 22.8574 14.4763 22.3184 14.4763 21.5742V21.5625C14.4763 20.8125 13.8377 20.2676 12.906 20.2676C11.9744 20.2676 11.3298 20.8125 11.3298 21.5625V21.5742C11.3298 22.3184 11.9802 22.8574 12.906 22.8574ZM20.5352 24.1465C18.4961 24.1465 17.0078 22.7109 17.0078 19.8457V19.834C17.0078 17.0625 18.3496 15.3984 20.5527 15.3984C22.1875 15.3984 23.418 16.3418 23.6699 17.6484L23.6816 17.707H21.9355L21.918 17.6543C21.707 17.1445 21.2383 16.7988 20.5469 16.7988C19.3105 16.7988 18.7715 17.9766 18.707 19.4707C18.7012 19.5879 18.6953 19.7051 18.6953 19.793H18.7305C19.0645 19.0078 19.8965 18.4336 21.0391 18.4336C22.6738 18.4336 23.793 19.5938 23.793 21.1758V21.1875C23.793 22.916 22.416 24.1465 20.5352 24.1465ZM18.9648 21.2285C18.9648 22.0781 19.6445 22.7402 20.5117 22.7402C21.373 22.7402 22.0703 22.084 22.0703 21.252V21.2402C22.0703 20.3613 21.4082 19.7402 20.5293 19.7402C19.6445 19.7402 18.9648 20.3555 18.9648 21.2168V21.2285ZM28.053 24.1465C25.9084 24.1465 24.6077 22.4648 24.6077 19.7754V19.7637C24.6077 17.0742 25.9084 15.3984 28.053 15.3984C30.1975 15.3984 31.4983 17.0742 31.4983 19.7637V19.7754C31.4983 22.4648 30.1975 24.1465 28.053 24.1465ZM28.053 22.7285C29.1077 22.7285 29.7112 21.6328 29.7112 19.7754V19.7637C29.7112 17.9062 29.1077 16.8164 28.053 16.8164C26.9983 16.8164 26.3948 17.9062 26.3948 19.7637V19.7754C26.3948 21.6328 26.9983 22.7285 28.053 22.7285Z" fill="#0F0F0F"/>
<path d="M0.681484 25.1764C-0.342308 21.3555 -0.210098 17.3169 1.0614 13.5712C2.33289 9.82551 4.68656 6.54097 7.82477 4.13293C10.963 1.7249 14.7448 0.301532 18.6919 0.0428215C22.6391 -0.215889 26.5743 0.701679 30 2.67949L28 6.14359C25.2595 4.56134 22.1113 3.82729 18.9536 4.03426C15.7958 4.24123 12.7704 5.37992 10.2598 7.30635C7.74925 9.23277 5.86631 11.8604 4.84912 14.857C3.83192 17.8535 3.72615 21.0844 4.54519 24.1411L0.681484 25.1764Z" fill="#1FC313"/>
</g>
<defs>
<clipPath id="clip0_1062_47941">
<rect width="40" height="40" rx="20" fill="white"/>
</clipPath>
</defs>
</svg>
