<svg width="119" height="92" viewBox="0 0 119 92" fill="none" xmlns="http://www.w3.org/2000/svg">
<g clip-path="url(#clip0_704_9326)">
<circle cx="59.5" cy="59.5" r="59.5" fill="#F0F0F0"/>
<path fill-rule="evenodd" clip-rule="evenodd" d="M50.4209 108.434C50.4911 108.036 50.8722 107.772 51.2708 107.839C53.6594 108.243 56.1066 108.473 58.5994 108.518C59.0003 108.525 59.3247 108.85 59.3247 109.251V117.917C59.3247 118.32 58.9975 118.646 58.5948 118.64C55.5006 118.594 52.4642 118.31 49.5027 117.806C49.1082 117.739 48.8466 117.362 48.9161 116.968L50.4209 108.434ZM69.1404 117.121C69.2107 117.52 68.9424 117.9 68.5423 117.961C65.8886 118.368 63.1767 118.598 60.4191 118.64C60.0163 118.646 59.689 118.32 59.689 117.917V109.251C59.689 108.85 60.0132 108.525 60.414 108.518C62.5798 108.478 64.7111 108.299 66.7995 107.987C67.1938 107.928 67.5659 108.191 67.6352 108.584L69.1404 117.121ZM78.9456 114.598C79.0839 114.978 78.8857 115.399 78.5025 115.529C75.861 116.425 73.1356 117.138 70.3413 117.656C69.9471 117.729 69.5711 117.464 69.5015 117.069L67.9965 108.534C67.9265 108.137 68.1927 107.759 68.5889 107.684C70.7998 107.27 72.9577 106.705 75.0532 106.004C75.4313 105.878 75.8436 106.072 75.9799 106.447L78.9456 114.598ZM42.7068 106.342C42.8439 105.966 43.2592 105.771 43.6382 105.901C45.5382 106.551 47.4902 107.088 49.4872 107.503C49.8765 107.584 50.1345 107.958 50.0655 108.35L48.5601 116.888C48.4897 117.287 48.1063 117.552 47.7088 117.472C45.1348 116.951 42.6217 116.263 40.1808 115.419C39.7998 115.287 39.6037 114.868 39.7416 114.49L42.7068 106.342ZM88.2882 110.336C88.4902 110.686 88.3689 111.134 88.0151 111.329C85.5213 112.705 82.9177 113.905 80.2206 114.914C79.845 115.055 79.4286 114.86 79.2915 114.483L76.3275 106.336C76.1897 105.958 76.3862 105.54 76.7634 105.398C78.905 104.591 80.9749 103.639 82.9618 102.554C83.3123 102.363 83.7533 102.482 83.953 102.828L88.2882 110.336ZM34.7772 102.684C34.9778 102.336 35.4215 102.217 35.7724 102.412C37.7462 103.506 39.8036 104.467 41.9323 105.284C42.3069 105.428 42.5008 105.845 42.3636 106.221L39.3994 114.368C39.2617 114.746 38.8428 114.941 38.4665 114.798C35.7833 113.776 33.1938 112.565 30.7141 111.18C30.3626 110.984 30.243 110.538 30.4442 110.189L34.7772 102.684ZM96.4369 104.745C96.6976 105.056 96.6544 105.52 96.3373 105.773C94.2062 107.473 91.9555 109.028 89.599 110.425C89.2535 110.629 88.8085 110.51 88.6077 110.162L84.275 102.656C84.0738 102.308 84.1939 101.862 84.5396 101.657C86.3904 100.554 88.1616 99.3323 89.8445 98.0034C90.1565 97.7569 90.609 97.7996 90.8646 98.1042L96.4369 104.745ZM27.7124 97.7694C27.97 97.4624 28.4269 97.4219 28.7388 97.6735C30.4675 99.0685 32.2934 100.348 34.2038 101.501C34.5468 101.708 34.6648 102.151 34.4645 102.498L30.1306 110.005C29.929 110.354 29.4817 110.473 29.136 110.266C26.7189 108.817 24.4141 107.2 22.2373 105.431C21.9246 105.177 21.8838 104.716 22.1428 104.408L27.7124 97.7694ZM103.953 97.3882C104.263 97.648 104.302 98.1107 104.036 98.415C102.096 100.634 99.9934 102.707 97.746 104.615C97.441 104.874 96.9843 104.832 96.7271 104.525L91.1585 97.8885C90.8987 97.5789 90.9414 97.1173 91.2491 96.8552C93.0458 95.3257 94.7295 93.6678 96.2886 91.8975C96.5525 91.5978 97.0077 91.5597 97.3135 91.8164L103.953 97.3882ZM21.5374 91.6466C21.8443 91.3891 22.3011 91.4284 22.5646 91.7302C24.0484 93.4299 25.6475 95.026 27.3499 96.5067C27.6526 96.77 27.6923 97.2275 27.4345 97.5348L21.8631 104.175C21.6043 104.483 21.1438 104.523 20.8391 104.26C18.6895 102.401 16.6751 100.39 14.8129 98.2429C14.5487 97.9384 14.5884 97.4773 14.8973 97.2181L21.5374 91.6466ZM109.714 89.3396C110.066 89.5425 110.184 89.9937 109.972 90.3398C108.54 92.6801 106.949 94.913 105.215 97.0238C104.96 97.334 104.501 97.3734 104.194 97.1153L97.5552 91.5434C97.2468 91.2846 97.2075 90.8251 97.4623 90.5135C98.8233 88.8491 100.077 87.0941 101.213 85.258C101.422 84.9199 101.862 84.8054 102.206 85.0042L109.714 89.3396ZM16.6099 84.705C16.9559 84.5052 17.3978 84.622 17.6056 84.9633C18.7499 86.843 20.0169 88.6397 21.3959 90.3421C21.6484 90.6538 21.6082 91.1115 21.3009 91.3694L14.6627 96.9407C14.3543 97.1995 13.8941 97.1591 13.6397 96.847C11.8874 94.6971 10.2829 92.422 8.84234 90.0365C8.63349 89.6907 8.75226 89.2421 9.10214 89.0401L16.6099 84.705ZM114.18 80.0594C114.561 80.1979 114.756 80.6205 114.609 80.9978C113.558 83.6897 112.317 86.2859 110.9 88.7693C110.702 89.1168 110.259 89.2335 109.913 89.0336L102.406 84.6994C102.055 84.4972 101.938 84.0487 102.137 83.6972C103.262 81.7192 104.253 79.6558 105.098 77.5184C105.244 77.1479 105.658 76.9576 106.032 77.0938L114.18 80.0594ZM12.922 76.9822C13.2971 76.8457 13.7116 77.0369 13.8573 77.4084C14.6688 79.4769 15.6157 81.4771 16.689 83.3973C16.8853 83.7485 16.7667 84.1938 16.4183 84.395L8.91333 88.7277C8.56548 88.9285 8.1203 88.8098 7.92338 88.4598C6.55984 86.0356 5.36186 83.5059 4.34557 80.8855C4.19936 80.5085 4.39416 80.0869 4.7741 79.9485L12.922 76.9822ZM116.922 70.205C117.32 70.2752 117.586 70.6566 117.507 71.0533C116.949 73.8758 116.19 76.626 115.245 79.2886C115.111 79.6663 114.694 79.8593 114.317 79.7222L106.174 76.7575C105.795 76.6195 105.601 76.1997 105.735 75.8193C106.482 73.7029 107.087 71.52 107.54 69.2817C107.619 68.8906 107.994 68.6304 108.387 68.6997L116.922 70.205ZM10.6114 68.6997C11.0044 68.6304 11.3793 68.8906 11.4584 69.2817C11.9034 71.4808 12.4954 73.6264 13.224 75.708C13.357 76.0881 13.1629 76.5068 12.7845 76.6445L4.63999 79.6094C4.26284 79.7467 3.84528 79.5529 3.71189 79.1744C2.78628 76.5475 2.04226 73.8353 1.49196 71.0533C1.4135 70.6566 1.67858 70.2752 2.07677 70.2049L10.6114 68.6997ZM9.76678 60.0443C10.1657 60.0443 10.4897 60.3655 10.4997 60.7643C10.5572 63.0511 10.7706 65.2991 11.131 67.4978C11.1961 67.8953 10.9322 68.274 10.5356 68.344L2.00282 69.8489C1.60756 69.9186 1.23001 69.6553 1.16434 69.2593C0.705448 66.4926 0.439369 63.661 0.378677 60.7786C0.370161 60.3742 0.697517 60.0443 1.10202 60.0443H9.76678ZM117.898 60.0443C118.302 60.0443 118.63 60.3742 118.621 60.7786C118.561 63.661 118.294 66.4926 117.835 69.2593C117.769 69.6553 117.391 69.9186 116.996 69.8489L108.462 68.344C108.066 68.274 107.802 67.8953 107.867 67.4978C108.228 65.299 108.443 63.0512 108.5 60.7643C108.51 60.3655 108.834 60.0443 109.233 60.0443H117.898ZM10.4188 51.4235C10.8111 51.4926 11.0743 51.8642 11.0159 52.2583C10.6653 54.6234 10.4829 57.0437 10.4829 59.5062C10.4829 59.6022 10.406 59.6801 10.3101 59.6801H0.538577C0.442492 59.6801 0.36377 59.6023 0.36377 59.5062C0.36377 56.4502 0.595418 53.4482 1.0423 50.517C1.10335 50.1166 1.48337 49.8479 1.88225 49.9182L10.4188 51.4235ZM117.117 49.9182C117.516 49.8479 117.896 50.1166 117.957 50.517C118.404 53.4482 118.636 56.4502 118.636 59.5062C118.636 59.6023 118.558 59.6801 118.461 59.6801H108.689C108.593 59.6801 108.516 59.6022 108.516 59.5062C108.516 57.0436 108.334 54.6234 107.983 52.2583C107.925 51.8642 108.188 51.4926 108.58 51.4235L117.117 49.9182ZM12.5497 43.0651C12.9241 43.2014 13.1188 43.6131 12.9927 43.9911C12.2922 46.0909 11.728 48.2532 11.3147 50.4686C11.2408 50.8652 10.8628 51.1319 10.4655 51.0619L1.93277 49.5578C1.53817 49.4882 1.27355 49.1127 1.34614 48.7187C1.86181 45.9192 2.57357 43.1886 3.46853 40.5422C3.59824 40.1586 4.01906 39.9601 4.39956 40.0986L12.5497 43.0651ZM114.56 39.9849C114.94 39.8465 115.36 40.0443 115.49 40.427C116.404 43.1092 117.13 45.8779 117.653 48.7177C117.725 49.1118 117.461 49.4873 117.066 49.5569L108.533 51.0618C108.135 51.1319 107.757 50.8652 107.683 50.4686C107.263 48.2137 106.687 46.0137 105.969 43.8789C105.842 43.5006 106.037 43.0877 106.412 42.9512L114.56 39.9849ZM16.0645 35.2646C16.4092 35.4636 16.5295 35.9023 16.3405 36.2525C15.2961 38.1873 14.378 40.2002 13.5971 42.2804C13.4554 42.6581 13.0369 42.855 12.6578 42.717L4.51263 39.7522C4.13602 39.6151 3.94066 39.1992 4.08082 38.8237C5.06389 36.1901 6.22931 33.6454 7.56166 31.2049C7.75584 30.8492 8.20509 30.7264 8.55602 30.9291L16.0645 35.2646ZM110.274 30.6213C110.623 30.4195 111.071 30.5403 111.266 30.8933C112.651 33.3934 113.859 36.0044 114.875 38.7096C115.016 39.0853 114.821 39.5022 114.444 39.6394L106.299 42.6043C105.921 42.742 105.503 42.5461 105.361 42.1694C104.548 40.0196 103.588 37.9422 102.494 35.9488C102.301 35.5982 102.421 35.1563 102.767 34.9563L110.274 30.6213ZM21.1138 27.8705C21.4198 28.1273 21.4611 28.5825 21.2115 28.8944C19.7523 30.718 18.4214 32.6487 17.2307 34.6719C17.0259 35.0199 16.579 35.1416 16.2293 34.9396L8.72503 30.6056C8.37827 30.4053 8.25802 29.9623 8.46066 29.6169C9.94704 27.0835 11.6163 24.6704 13.4508 22.3962C13.7045 22.0817 14.1666 22.04 14.476 22.2997L21.1138 27.8705ZM104.381 22.125C104.689 21.866 105.15 21.9068 105.404 22.2194C107.221 24.454 108.878 26.8239 110.358 29.3116C110.563 29.6573 110.444 30.1029 110.095 30.304L102.59 34.6376C102.242 34.8386 101.798 34.7192 101.592 34.3744C100.408 32.3955 99.0887 30.5072 97.6467 28.7221C97.3948 28.4103 97.4353 27.9532 97.7423 27.6955L104.381 22.125ZM26.9377 21.9099C27.1931 22.2143 27.1568 22.6668 26.8606 22.9315C25.2675 24.3551 23.7692 25.8824 22.3737 27.5008C22.111 27.8054 21.6518 27.8463 21.3437 27.5876L14.705 22.0167C14.3973 21.7584 14.3566 21.2994 14.6183 20.9946C16.3896 18.9317 18.3004 16.9921 20.3364 15.1909C20.6404 14.922 21.1055 14.9598 21.3664 15.2707L26.9377 21.9099ZM97.2277 14.9151C97.487 14.6061 97.9483 14.5665 98.2528 14.831C100.385 16.683 102.384 18.6855 104.232 20.8214C104.496 21.126 104.456 21.5867 104.147 21.8456L97.5073 27.417C97.2001 27.6747 96.7428 27.6351 96.4795 27.3327C95.0091 25.6437 93.4253 24.0567 91.7393 22.5831C91.4379 22.3196 91.3988 21.863 91.6561 21.5563L97.2277 14.9151ZM34.2138 16.6669C34.4132 17.0124 34.2971 17.4535 33.9568 17.6617C31.9507 18.889 30.0395 20.2559 28.2372 21.7501C27.9258 22.0083 27.4632 21.9703 27.2032 21.6603L21.6336 15.0215C21.3767 14.7152 21.4146 14.2587 21.722 14.0031C23.9733 12.1314 26.3656 10.4234 28.8808 8.89789C29.2267 8.68809 29.6762 8.80666 29.8785 9.15705L34.2138 16.6669ZM88.8597 9.00036C89.0613 8.65129 89.5084 8.53211 89.8542 8.73934C92.3096 10.2111 94.6492 11.8561 96.8566 13.6572C97.1683 13.9116 97.2086 14.3716 96.95 14.6799L91.3795 21.3189C91.1215 21.6264 90.6636 21.6665 90.3518 21.4136C88.593 19.9871 86.7336 18.6803 84.7857 17.5049C84.4426 17.2979 84.3245 16.8547 84.5249 16.5077L88.8597 9.00036ZM41.9537 12.9514C42.09 13.326 41.8995 13.74 41.5286 13.8862C39.4531 14.7046 37.4469 15.6601 35.5212 16.7423C35.1699 16.9397 34.7235 16.8214 34.5221 16.4724L30.1885 8.96575C29.9879 8.61836 30.106 8.1738 30.4552 7.97649C32.8853 6.60354 35.4221 5.3976 38.0502 4.37416C38.4274 4.22727 38.8498 4.42206 38.9882 4.80242L41.9537 12.9514ZM79.7036 4.68325C79.8415 4.30442 80.2613 4.10941 80.6378 4.25356C83.2798 5.26512 85.8308 6.46058 88.275 7.82463C88.6265 8.02081 88.7463 8.46701 88.5451 8.81566L84.212 16.3229C84.0114 16.6704 83.5678 16.7895 83.2168 16.5951C81.2774 15.5207 79.2574 14.574 77.1682 13.7663C76.7945 13.6218 76.6014 13.206 76.7384 12.8296L79.7036 4.68325ZM48.0077 1.48037C48.4041 1.40231 48.7852 1.66735 48.8554 2.06531L50.3606 10.6008C50.43 10.994 50.1693 11.3692 49.7778 11.448C47.5354 11.8994 45.3485 12.5045 43.2282 13.2506C42.8479 13.3845 42.4284 13.1904 42.2905 12.8116L39.3257 4.66528C39.1885 4.28851 39.3818 3.87135 39.7598 3.73756C42.4263 2.79371 45.181 2.03692 48.0077 1.48037ZM69.2053 1.88769C69.2747 1.49427 69.6483 1.22983 70.0414 1.30059C73.09 1.84925 76.0574 2.63184 78.9245 3.62868C79.3047 3.76088 79.5 4.17953 79.3624 4.5578L76.3972 12.7039C76.26 13.081 75.8437 13.2753 75.4643 13.1446C73.1488 12.347 70.7551 11.7173 68.2973 11.2716C67.8989 11.1994 67.6301 10.8205 67.7005 10.4217L69.2053 1.88769ZM59.3247 9.75948C59.3247 10.1605 59.0003 10.4853 58.5994 10.4925C56.208 10.5354 53.8582 10.7484 51.5621 11.122C51.1648 11.1867 50.7866 10.9228 50.7167 10.5264L49.2126 1.99255C49.1429 1.59707 49.4066 1.2194 49.8028 1.15407C52.6692 0.681485 55.6051 0.416691 58.5948 0.372121C58.9975 0.366117 59.3247 0.692774 59.3247 1.09557V9.75948ZM59.689 1.09574C59.689 0.692877 60.0163 0.366192 60.4191 0.372308C63.0725 0.412592 65.6835 0.626884 68.2411 1.00572C68.643 1.06524 68.9135 1.44604 68.8429 1.84608L67.3375 10.3841C67.2686 10.775 66.8993 11.038 66.5063 10.9818C64.5118 10.6962 62.4785 10.5306 60.414 10.4928C60.0132 10.4854 59.689 10.1606 59.689 9.75968V1.09574Z" fill="white"/>
<mask id="mask0_704_9326" style="mask-type:alpha" maskUnits="userSpaceOnUse" x="0" y="0" width="119" height="119">
<path fill-rule="evenodd" clip-rule="evenodd" d="M50.42 108.421C50.4902 108.023 50.8712 107.759 51.2698 107.826C53.6587 108.23 56.1063 108.461 58.5994 108.506C59.0003 108.514 59.3247 108.838 59.3247 109.239V117.903C59.3247 118.306 58.9975 118.633 58.5948 118.627C55.5003 118.58 52.4635 118.297 49.5017 117.792C49.1072 117.725 48.8457 117.348 48.9151 116.954L50.42 108.421ZM69.1395 117.108C69.2098 117.506 68.9414 117.886 68.5414 117.947C65.8879 118.354 63.1764 118.585 60.4191 118.627C60.0163 118.633 59.689 118.306 59.689 117.903V109.239C59.689 108.838 60.0132 108.513 60.414 108.506C62.5798 108.467 64.7111 108.287 66.7995 107.975C67.1938 107.916 67.5659 108.18 67.6351 108.572L69.1395 117.108ZM78.9454 114.584C79.0838 114.965 78.8856 115.385 78.5023 115.515C75.8606 116.411 73.1349 117.124 70.3404 117.641C69.9461 117.714 69.5702 117.45 69.5006 117.055L67.9965 108.522C67.9265 108.125 68.1927 107.747 68.5889 107.673C70.7995 107.258 72.9571 106.693 75.0524 105.992C75.4304 105.866 75.8426 106.061 75.979 106.435L78.9454 114.584ZM42.7059 106.331C42.8429 105.954 43.2582 105.76 43.6373 105.889C45.5375 106.539 47.4898 107.077 49.4872 107.492C49.8765 107.573 50.1345 107.946 50.0655 108.338L48.5601 116.875C48.4897 117.275 48.1063 117.54 47.7088 117.459C45.1348 116.938 42.6217 116.25 40.1808 115.406C39.7998 115.275 39.6037 114.856 39.7416 114.477L42.7059 106.331ZM88.2863 110.324C88.4883 110.674 88.3669 111.122 88.0131 111.317C85.5198 112.692 82.917 113.893 80.2205 114.902C79.8449 115.042 79.4286 114.847 79.2915 114.47L76.3266 106.325C76.1887 105.946 76.3853 105.528 76.7626 105.386C78.9041 104.58 80.974 103.628 82.9608 102.543C83.3114 102.352 83.7523 102.472 83.952 102.817L88.2863 110.324ZM34.7792 102.673C34.9798 102.326 35.4234 102.206 35.7743 102.401C37.7473 103.494 39.8036 104.455 41.9313 105.273C42.3059 105.416 42.4998 105.833 42.3626 106.21L39.3984 114.355C39.2607 114.733 38.8418 114.928 38.4656 114.785C35.7833 113.764 33.195 112.552 30.7162 111.168C30.3647 110.972 30.2449 110.526 30.4462 110.177L34.7792 102.673ZM96.4379 104.733C96.6985 105.043 96.6553 105.507 96.3382 105.76C94.2063 107.46 91.9545 109.016 89.5971 110.413C89.2515 110.618 88.8066 110.498 88.6057 110.15L84.274 102.645C84.0729 102.297 84.1929 101.852 84.5386 101.646C86.3903 100.543 88.162 99.3203 89.8455 97.9907C90.1575 97.7442 90.6099 97.7869 90.8655 98.0915L96.4379 104.733ZM27.7124 97.7577C27.97 97.4507 28.4269 97.4101 28.7388 97.6618C30.4678 99.0571 32.2938 100.337 34.2047 101.49C34.5477 101.697 34.6657 102.14 34.4654 102.487L30.1315 109.993C29.93 110.343 29.4828 110.462 29.137 110.254C26.7196 108.805 24.4144 107.188 22.2374 105.42C21.9246 105.165 21.8838 104.705 22.1428 104.396L27.7124 97.7577ZM103.953 97.3775C104.263 97.6373 104.302 98.1 104.036 98.4043C102.096 100.622 99.9938 102.694 97.747 104.601C97.4419 104.86 96.9852 104.818 96.728 104.512L91.1596 97.8759C90.8997 97.5662 90.9424 97.1046 91.2502 96.8425C93.0463 95.3135 94.7298 93.6564 96.2886 91.8867C96.5525 91.587 97.0077 91.549 97.3135 91.8057L103.953 97.3775ZM21.5375 91.6359C21.8443 91.3784 22.3012 91.4177 22.5646 91.7194C24.0484 93.4189 25.6475 95.0145 27.3499 96.495C27.6525 96.7583 27.6923 97.2158 27.4345 97.5231L21.8631 104.163C21.6042 104.472 21.1438 104.512 20.8391 104.248C18.6897 102.39 16.675 100.379 14.8129 98.2331C14.5487 97.9286 14.5884 97.4675 14.8972 97.2083L21.5375 91.6359ZM109.714 89.3289C110.066 89.5318 110.184 89.983 109.972 90.3291C108.539 92.6694 106.949 94.9024 105.215 97.0132C104.96 97.3234 104.501 97.3628 104.194 97.1047L97.5544 91.5337C97.246 91.2749 97.2066 90.8153 97.4615 90.5037C98.8228 88.839 100.077 87.0837 101.213 85.2472C101.422 84.9092 101.862 84.7947 102.206 84.9934L109.714 89.3289ZM16.6099 84.6942C16.9559 84.4944 17.3978 84.6112 17.6056 84.9525C18.7502 86.8326 20.0173 88.6295 21.3967 90.3322C21.6493 90.644 21.6091 91.1017 21.3017 91.3597L14.6626 96.9301C14.3543 97.1888 13.8941 97.1484 13.6398 96.8364C11.8872 94.6863 10.283 92.4106 8.84238 90.0249C8.63352 89.679 8.75232 89.2304 9.10224 89.0284L16.6099 84.6942ZM114.18 80.0506C114.561 80.1891 114.756 80.6118 114.608 80.989C113.558 83.6803 112.317 86.2757 110.901 88.7586C110.702 89.106 110.259 89.2228 109.913 89.0228L102.407 84.6887C102.056 84.4865 101.939 84.0379 102.138 83.6865C103.263 81.7091 104.253 79.6463 105.098 77.5096C105.244 77.1391 105.658 76.9488 106.032 77.0851L114.18 80.0506ZM12.9221 76.9734C13.2971 76.8369 13.7116 77.0281 13.8573 77.3996C14.6687 79.4674 15.6158 81.4669 16.689 83.3866C16.8853 83.7377 16.7667 84.1831 16.4183 84.3843L8.91331 88.717C8.56547 88.9178 8.12029 88.7991 7.92337 88.4491C6.55987 86.0253 5.36189 83.4959 4.34562 80.8758C4.19939 80.4988 4.39422 80.0771 4.7742 79.9388L12.9221 76.9734ZM116.922 70.1991C117.32 70.2693 117.585 70.6508 117.507 71.0475C116.948 73.869 116.19 76.6182 115.245 79.2798C115.111 79.6575 114.694 79.8505 114.317 79.7134L106.173 76.7487C105.794 76.6107 105.6 76.1909 105.734 75.8105C106.481 73.6949 107.087 71.5132 107.54 69.2758C107.619 68.8847 107.994 68.6246 108.387 68.6939L116.922 70.1991ZM10.6115 68.6938C11.0044 68.6245 11.3793 68.8847 11.4585 69.2757C11.9034 71.4742 12.4955 73.6192 13.2239 75.7001C13.357 76.0803 13.1629 76.499 12.7844 76.6367L4.63992 79.6007C4.26279 79.7379 3.84529 79.5442 3.7119 79.1657C2.78637 76.5394 2.04232 73.8279 1.49201 71.0466C1.41353 70.6499 1.67864 70.2684 2.07688 70.1982L10.6115 68.6938ZM9.76682 60.0404C10.1657 60.0404 10.4897 60.3616 10.4998 60.7603C10.5573 63.0462 10.7707 65.2932 11.1309 67.491C11.1961 67.8884 10.9322 68.2672 10.5355 68.3371L2.00279 69.842C1.60755 69.9118 1.23 69.6485 1.16432 69.2525C0.705507 66.4867 0.439514 63.6561 0.378712 60.7748C0.370178 60.3703 0.697539 60.0404 1.10206 60.0404H9.76682ZM117.898 60.0404C118.302 60.0404 118.63 60.3703 118.621 60.7748C118.56 63.6561 118.294 66.4867 117.835 69.2525C117.769 69.6485 117.391 69.9118 116.996 69.8421L108.463 68.3371C108.066 68.2672 107.802 67.8884 107.867 67.491C108.228 65.2931 108.442 63.0462 108.5 60.7603C108.51 60.3616 108.834 60.0404 109.233 60.0404H117.898ZM10.4178 51.4186C10.8101 51.4878 11.0733 51.8594 11.0149 52.2534C10.6646 54.6179 10.4829 57.0375 10.4829 59.4994C10.4829 59.597 10.4046 59.6762 10.3071 59.6762H0.541507C0.443801 59.6762 0.36377 59.5971 0.36377 59.4994C0.36377 56.4441 0.594657 53.4427 1.04134 50.5121C1.10237 50.1117 1.48239 49.843 1.88127 49.9133L10.4178 51.4186ZM117.118 49.9133C117.517 49.843 117.897 50.1117 117.958 50.5121C118.405 53.4427 118.636 56.444 118.636 59.4994C118.636 59.5971 118.556 59.6762 118.458 59.6762H108.692C108.594 59.6762 108.516 59.597 108.516 59.4994C108.516 57.0375 108.334 54.6179 107.984 52.2534C107.926 51.8594 108.189 51.4878 108.581 51.4186L117.118 49.9133ZM12.5496 43.0602C12.924 43.1965 13.1187 43.6083 12.9927 43.9862C12.292 46.0863 11.728 48.249 11.3147 50.4647C11.2408 50.8613 10.8628 51.128 10.4654 51.0579L1.93173 49.553C1.53716 49.4834 1.27257 49.1079 1.34517 48.7139C1.86095 45.9144 2.57332 43.1837 3.4685 40.5373C3.59824 40.1537 4.01904 39.9552 4.39953 40.0937L12.5496 43.0602ZM114.56 39.9809C114.94 39.8426 115.36 40.0403 115.49 40.4231C116.404 43.1052 117.13 45.8739 117.654 48.7139C117.726 49.1079 117.462 49.4834 117.067 49.553L108.534 51.0579C108.136 51.128 107.758 50.8613 107.684 50.4647C107.264 48.2095 106.688 46.0092 105.97 43.8741C105.842 43.4958 106.037 43.0828 106.412 42.9463L114.56 39.9809ZM16.0654 35.2597C16.4101 35.4587 16.5305 35.8974 16.3414 36.2477C15.2967 38.1825 14.3782 40.1953 13.5971 42.2756C13.4554 42.6532 13.0369 42.8501 12.6579 42.7121L4.51266 39.7473C4.13603 39.6103 3.94068 39.1943 4.08085 38.8188C5.06399 36.1852 6.2292 33.6404 7.56167 31.1999C7.75585 30.8443 8.20505 30.7215 8.55596 30.9241L16.0654 35.2597ZM110.273 30.6173C110.622 30.4155 111.07 30.5363 111.265 30.8893C112.65 33.3894 113.859 36.0003 114.875 38.7056C115.016 39.0813 114.821 39.4983 114.444 39.6355L106.299 42.5995C105.921 42.7372 105.503 42.5413 105.361 42.1647C104.548 40.0148 103.587 37.9374 102.493 35.944C102.3 35.5933 102.42 35.1515 102.766 34.9514L110.273 30.6173ZM21.1137 27.8676C21.4198 28.1244 21.4611 28.5796 21.2114 28.8916C19.7525 30.7146 18.4221 32.6447 17.2316 34.6671C17.0268 35.0151 16.5801 35.1368 16.2303 34.9349L8.72519 30.6017C8.37836 30.4014 8.25808 29.9584 8.46077 29.6129C9.94706 27.0802 11.6165 24.6678 13.4508 22.3941C13.7045 22.0797 14.1665 22.038 14.476 22.2977L21.1137 27.8676ZM104.381 22.123C104.689 21.8641 105.15 21.9048 105.404 22.2173C107.221 24.4512 108.878 26.8199 110.358 29.3067C110.563 29.6524 110.444 30.0981 110.095 30.2992L102.589 34.6328C102.241 34.8337 101.797 34.7144 101.591 34.3696C100.407 32.3915 99.0885 30.5038 97.6468 28.7192C97.3949 28.4074 97.4353 27.9502 97.7424 27.6926L104.381 22.123ZM26.9387 21.907C27.1941 22.2113 27.1578 22.6639 26.8615 22.9286C25.2681 24.3522 23.7694 25.8794 22.3736 27.4979C22.1109 27.8026 21.6519 27.8434 21.3437 27.5848L14.7051 22.0147C14.3973 21.7565 14.3566 21.2974 14.6184 20.9926C16.3902 18.9293 18.3016 16.9894 20.3383 15.1879C20.6423 14.9191 21.1074 14.9569 21.3683 15.2678L26.9387 21.907ZM97.2268 14.914C97.486 14.6051 97.9473 14.5655 98.2518 14.8299C100.385 16.6815 102.384 18.6829 104.232 20.8185C104.496 21.1231 104.456 21.5838 104.147 21.8427L97.5072 27.4141C97.2001 27.6718 96.7428 27.6322 96.4795 27.3298C95.0089 25.6408 93.4247 24.0538 91.7385 22.5802C91.437 22.3167 91.3979 21.86 91.6553 21.5533L97.2268 14.914ZM34.2118 16.6659C34.4112 17.0114 34.2951 17.4525 33.9549 17.6607C31.9497 18.8875 30.0396 20.2539 28.2381 21.7472C27.9267 22.0054 27.4642 21.9674 27.2042 21.6575L21.6347 15.0196C21.3777 14.7133 21.4156 14.2567 21.7231 14.0011C23.9736 12.1303 26.3647 10.4228 28.8789 8.89788C29.2248 8.68809 29.6742 8.80664 29.8765 9.15701L34.2118 16.6659ZM88.8607 9.00039C89.0623 8.65131 89.5094 8.53212 89.8551 8.73933C92.3102 10.2106 94.6495 11.8548 96.8565 13.6553C97.1683 13.9097 97.2086 14.3697 96.9499 14.678L91.3795 21.317C91.1215 21.6245 90.6636 21.6646 90.3518 21.4117C88.5936 19.9857 86.7349 18.679 84.7876 17.5039C84.4446 17.2969 84.3265 16.8537 84.5268 16.5067L88.8607 9.00039ZM41.9537 12.9504C42.09 13.325 41.8994 13.7391 41.5286 13.8853C39.4527 14.7037 37.4462 15.6591 35.5202 16.7414C35.1689 16.9388 34.7226 16.8204 34.5211 16.4715L30.1876 8.96579C29.987 8.6184 30.1051 8.1738 30.4543 7.97649C32.8847 6.60349 35.4218 5.39758 38.0503 4.37413C38.4274 4.22727 38.8498 4.42204 38.9882 4.80238L41.9537 12.9504ZM79.7027 4.68328C79.8406 4.30444 80.2603 4.10941 80.6368 4.25353C83.2798 5.26517 85.8319 6.46028 88.2768 7.82459C88.6284 8.02078 88.7482 8.46707 88.5468 8.81573L84.213 16.3212C84.0124 16.6686 83.5688 16.7877 83.2179 16.5933C81.2782 15.5189 79.2577 14.5729 77.1682 13.7653C76.7945 13.6209 76.6014 13.2051 76.7384 12.8286L79.7027 4.68328ZM50.3596 10.5998C50.429 10.9931 50.1684 11.3682 49.7769 11.447C47.5347 11.8984 45.3482 12.5036 43.2281 13.2497C42.8478 13.3835 42.4284 13.1895 42.2905 12.8106L39.3257 4.66533C39.1886 4.28855 39.3818 3.87136 39.7598 3.73756C42.4261 2.79374 45.1803 2.03606 48.0067 1.47942C48.4032 1.40134 48.7842 1.66639 48.8544 2.06434L50.3596 10.5998ZM69.2043 1.88773C69.2737 1.4943 69.6473 1.22984 70.0405 1.30058C73.089 1.84906 76.0564 2.63116 78.9234 3.62775C79.3037 3.75993 79.4991 4.17859 79.3614 4.55688L76.3963 12.703C76.259 13.08 75.8427 13.2744 75.4634 13.1437C73.1481 12.3461 70.7549 11.7154 68.2973 11.2697C67.8989 11.1974 67.6301 10.8185 67.7004 10.4198L69.2043 1.88773ZM59.3247 9.75852C59.3247 10.1595 59.0003 10.4844 58.5994 10.4916C56.2079 10.5345 53.8582 10.7483 51.562 11.122C51.1648 11.1867 50.7865 10.9228 50.7166 10.5265L49.2117 1.99164C49.1419 1.59614 49.4056 1.21843 49.8019 1.15312C52.6685 0.680626 55.6048 0.416577 58.5948 0.372121C58.9975 0.366133 59.3247 0.692788 59.3247 1.09558V9.75852ZM59.689 1.09575C59.689 0.692892 60.0163 0.366206 60.4191 0.372323C63.0725 0.412613 65.6835 0.626939 68.2411 1.00574C68.6429 1.06526 68.9134 1.44608 68.8429 1.84613L67.3376 10.3822C67.2686 10.7731 66.8993 11.0361 66.5064 10.9799C64.5118 10.6945 62.4785 10.5295 60.414 10.4918C60.0132 10.4845 59.689 10.1596 59.689 9.75872V1.09575Z" fill="#1FC313"/>
</mask>
<g mask="url(#mask0_704_9326)">
<path d="M17.6501 84.0647L8.18829 89.5234L6.73262 86.976L5.27696 83.8828L3.82131 80.4256L2.54761 76.6045C2.54761 76.6045 1.18383 72.044 0.546074 67.3247C-0.363708 60.5922 0.000205994 58.0448 0.546074 51.4944L2.1837 43.1244L6.55067 32.2069L12.1913 23.291L19.8335 15.1029L27.2938 9.46227L32.9345 6.18703L40.7586 2.9118L46.7632 1.27419L55.3152 0.182449L62.4115 0.000495911L70.2357 0.910278L78.4238 3.09377L89.3412 8.00661L97.1718 13.7319L101.045 17.2526L104.565 20.7733L108.086 25.3502L111.255 30.2792L115.479 39.4331L96.8197 46.1224L17.6501 84.0647Z" fill="#1FC313"/>
<path d="M114.815 92.2553L100.804 84.2492L60.9556 80.2461L17.1039 84.4311L6.91435 90.2537L-0.545898 88.0703C0.18193 104.689 2.65655 137.927 6.73239 137.927H48.0367H113.177C114.924 137.927 122.639 115.728 126.278 104.628L121.002 83.8852L114.815 92.2553Z" fill="#F0F0F0"/>
</g>
</g>
<defs>
<clipPath id="clip0_704_9326">
<rect width="119" height="91.5385" rx="7.04142" fill="white"/>
</clipPath>
</defs>
</svg>
